<svg width="38" height="38" viewBox="0 0 38 38" fill="none" xmlns="http://www.w3.org/2000/svg">
<path d="M33.25 31.6667V9.50002C33.25 7.7536 31.8298 6.33335 30.0833 6.33335H26.9167V3.16669H23.75V6.33335H14.25V3.16669H11.0833V6.33335H7.91667C6.17025 6.33335 4.75 7.7536 4.75 9.50002V31.6667C4.75 33.4131 6.17025 34.8334 7.91667 34.8334H30.0833C31.8298 34.8334 33.25 33.4131 33.25 31.6667ZM14.25 28.5H11.0833V25.3334H14.25V28.5ZM14.25 22.1667H11.0833V19H14.25V22.1667ZM20.5833 28.5H17.4167V25.3334H20.5833V28.5ZM20.5833 22.1667H17.4167V19H20.5833V22.1667ZM26.9167 28.5H23.75V25.3334H26.9167V28.5ZM26.9167 22.1667H23.75V19H26.9167V22.1667ZM30.0833 14.25H7.91667V11.0834H30.0833V14.25Z" fill="#393E46"/>
</svg>
