<?xml version="1.0" standalone="no"?>
<!DOCTYPE svg PUBLIC "-//W3C//DTD SVG 20010904//EN"
 "http://www.w3.org/TR/2001/REC-SVG-20010904/DTD/svg10.dtd">
<svg version="1.0" xmlns="http://www.w3.org/2000/svg"
 width="100.000000pt" height="100.000000pt" viewBox="0 0 100.000000 100.000000"
 preserveAspectRatio="xMidYMid meet">

<g transform="translate(0.000000,100.000000) scale(0.100000,-0.100000)"
fill="#000000" stroke="none">
<path d="M207 916 c-94 -26 -98 -65 -13 -126 l45 -32 -26 -57 c-70 -154 -76
-173 -81 -279 l-5 -103 -44 -36 c-55 -45 -83 -98 -83 -157 0 -58 19 -65 91
-31 41 19 70 25 125 25 38 0 75 -5 81 -11 8 -8 17 -8 32 0 39 21 22 109 -32
169 l-21 22 47 68 c67 98 75 104 122 91 46 -13 97 -6 156 21 27 12 66 20 100
20 45 0 64 6 102 30 29 20 68 34 108 41 35 6 69 15 76 21 18 14 17 93 -2 108
-7 6 -27 35 -44 64 -73 130 -203 175 -418 142 -88 -13 -108 -13 -142 -1 -62
22 -122 26 -174 11z m170 -63 c52 -16 59 -16 138 0 102 21 166 22 231 2 68
-20 140 -77 155 -123 6 -21 18 -45 26 -54 40 -46 -5 -66 -150 -67 -79 -1 -120
-14 -147 -46 -18 -22 -84 -55 -110 -55 l-20 0 20 40 20 40 -29 0 c-31 0 -122
-62 -178 -121 -44 -47 -103 -148 -103 -177 0 -13 13 -40 30 -59 16 -18 30 -37
30 -42 0 -4 -35 -11 -77 -15 -43 -4 -95 -9 -115 -12 -53 -8 -49 9 13 68 l52
48 8 88 c17 165 40 242 98 323 44 60 41 84 -14 117 -25 15 -45 35 -45 45 0 14
9 17 57 17 31 0 81 -8 110 -17z m373 -287 c0 -11 -19 -15 -25 -6 -3 5 1 10 9
10 9 0 16 -2 16 -4z"/>
<path d="M780 700 c0 -13 7 -20 20 -20 13 0 20 7 20 20 0 13 -7 20 -20 20 -13
0 -20 -7 -20 -20z"/>
</g>
</svg>
