<svg width="60" height="60" viewBox="0 0 60 60" fill="none" xmlns="http://www.w3.org/2000/svg">
<g clip-path="url(#clip0_68_110)">
<path d="M22.9126 5.77503C24.8609 6.64955 25.971 6.57847 28.0501 6.11253C35.3339 4.48257 44.5322 4.15024 51.136 7.97347C54.0184 9.93349 55.4749 11.8933 57.0001 15C57.9332 16.615 58.6822 17.8822 60.0001 19.2C60.1594 20.325 60.1594 20.325 60.1501 21.6C60.1547 22.2312 60.1547 22.2312 60.1594 22.875C60.0001 24 60.0001 24 58.8001 25.2C56.7015 25.5352 54.6029 25.7359 52.4883 25.9453C50.1531 26.4538 49.1593 27.229 47.4001 28.8C45.4481 30.0373 44.1365 30.0753 41.8501 29.925C38.9211 29.859 37.2805 30.3821 34.7813 31.8211C31.9366 33.2153 29.071 33.2292 26.0626 32.4375C25.3386 32.122 25.3386 32.122 24.6001 31.8C21.2312 34.8101 18.9698 38.0499 16.8001 42C17.1794 42.4885 17.1794 42.4885 17.5665 42.9867C17.8952 43.416 18.2239 43.8453 18.5626 44.2875C18.8897 44.7121 19.2169 45.1368 19.554 45.5742C21.185 47.9372 21.0527 50.0107 21.0001 52.8C19.8121 53.394 19.8121 53.394 18.6001 54C17.7091 53.406 17.7091 53.406 16.8001 52.8C12.5325 52.3758 7.63065 52.2287 4.12506 55.0125C3.00006 55.8 3.00006 55.8 1.35006 55.6125C0.904556 55.4764 0.459056 55.3403 5.6481e-05 55.2C-0.47028 51.028 0.0545807 48.4552 2.46099 45.0047C3.60006 43.8 3.60006 43.8 5.50084 42.7266C7.40798 41.5345 7.40798 41.5345 7.61959 39.3188C7.63193 38.5126 7.62882 37.7061 7.61256 36.9C7.63266 36.0343 7.6577 35.1686 7.68756 34.3032C7.70148 33.8774 7.7154 33.4516 7.72974 33.0129C8.02604 27.9019 9.97639 23.4703 12.3587 19.0149C13.1464 17.5031 13.7959 15.9927 14.4001 14.4C13.9739 14.1316 13.5477 13.8633 13.1087 13.5867C12.5572 13.224 12.0057 12.8613 11.4376 12.4875C10.8876 12.1325 10.3377 11.7775 9.77115 11.4117C8.1915 10.0157 7.96753 9.26319 7.80006 7.20003C12.055 3.95817 18.0196 3.52062 22.9126 5.77503Z" fill="#44B0E6"/>
<path d="M22.9126 5.77503C24.8609 6.64955 25.971 6.57847 28.0501 6.11253C35.3339 4.48257 44.5322 4.15024 51.136 7.97347C54.0184 9.93349 55.4749 11.8933 57.0001 15C57.9332 16.615 58.6822 17.8822 60.0001 19.2C60.1594 20.325 60.1594 20.325 60.1501 21.6C60.1547 22.2312 60.1547 22.2312 60.1594 22.875C60.0001 24 60.0001 24 58.8001 25.2C56.7015 25.5352 54.6029 25.7359 52.4883 25.9453C50.1531 26.4538 49.1593 27.229 47.4001 28.8C45.4481 30.0373 44.1365 30.0753 41.8501 29.925C38.9211 29.859 37.2805 30.3821 34.7813 31.8211C31.9366 33.2153 29.071 33.2292 26.0626 32.4375C25.3386 32.122 25.3386 32.122 24.6001 31.8C21.2312 34.8101 18.9698 38.0499 16.8001 42C17.1794 42.4885 17.1794 42.4885 17.5665 42.9867C17.8952 43.416 18.2239 43.8453 18.5626 44.2875C18.8897 44.7121 19.2169 45.1368 19.554 45.5742C21.185 47.9372 21.0527 50.0107 21.0001 52.8C19.8121 53.394 19.8121 53.394 18.6001 54C17.7091 53.406 17.7091 53.406 16.8001 52.8C12.5325 52.3758 7.63065 52.2287 4.12506 55.0125C3.00006 55.8 3.00006 55.8 1.35006 55.6125C0.904556 55.4764 0.459056 55.3403 5.64816e-05 55.2C-0.470281 51.028 0.0545807 48.4552 2.46099 45.0047C3.60006 43.8 3.60006 43.8 5.50084 42.7266C7.40798 41.5345 7.40798 41.5345 7.61959 39.3188C7.63193 38.5126 7.62882 37.7061 7.61256 36.9C7.63266 36.0343 7.6577 35.1686 7.68756 34.3032C7.70148 33.8774 7.7154 33.4516 7.72974 33.0129C8.02604 27.9019 9.97639 23.4703 12.3587 19.0149C13.1464 17.5031 13.7959 15.9927 14.4001 14.4C13.9739 14.1316 13.5477 13.8633 13.1087 13.5867C12.5572 13.224 12.0057 12.8613 11.4376 12.4875C10.8876 12.1325 10.3377 11.7775 9.77115 11.4117C8.1915 10.0157 7.96753 9.26319 7.80006 7.20003C12.055 3.95817 18.0196 3.52062 22.9126 5.77503ZM11.4001 9.00003C13.5781 10.584 15.7561 12.168 18.0001 13.8C17.4122 16.1516 16.7602 17.2782 15.4126 19.2375C12.5686 23.6958 10.8758 27.4243 10.5587 32.7586C10.5214 33.3694 10.4841 33.9803 10.4457 34.6096C10.3829 35.8426 10.3422 37.077 10.3259 38.3116C10.1313 42.6244 10.1313 42.6244 8.52677 44.363C7.23053 45.3188 7.23053 45.3188 5.94454 46.091C4.38752 47.0556 3.68232 48.1171 3.00006 49.8C3.19806 50.394 3.39606 50.988 3.60006 51.6C4.49106 51.006 4.49106 51.006 5.40006 50.4C9.53882 49.6701 13.81 49.7182 18.0001 49.8C17.5767 47.2709 16.4359 46.4096 14.5079 44.8547C13.8001 43.8 13.8001 43.8 13.8774 42.0844C15.8238 35.067 21.6456 29.8017 27.4946 25.8774C28.9283 25.1335 30.2097 24.8423 31.8001 24.6C31.4558 26.5969 30.8438 27.4191 29.4001 28.8C29.4001 29.196 29.4001 29.592 29.4001 30C33.5922 29.6647 35.9448 28.1253 39.0001 25.3875C42.243 22.8878 46.362 23.2446 50.3251 23.0625C51.1163 23.0237 51.1163 23.0237 51.9235 22.984C53.2156 22.9208 54.5078 22.8602 55.8001 22.8C56.2078 21.3617 56.2078 21.3617 56.4001 19.8C55.8061 19.206 55.8061 19.206 55.2001 18.6C54.8659 17.5048 54.8659 17.5048 54.5251 16.3875C53.4169 13.2836 51.2873 11.421 48.6001 9.60003C46.4468 8.59242 44.7648 8.25099 42.3938 8.26175C41.4947 8.26349 41.4947 8.26349 40.5774 8.26526C39.9579 8.27261 39.3384 8.27996 38.7001 8.28753C38.0805 8.28791 37.461 8.2883 36.8227 8.2887C34.0471 8.30482 31.5197 8.42772 28.8001 9.00003C25.9873 9.18755 23.9801 9.07774 21.3376 8.10003C17.6099 6.74335 14.3329 6.06722 11.4001 9.00003Z" fill="#010304"/>
<path d="M37.2632 20.9297C42.2737 20.7786 47.2428 21.5559 52.2 22.2C52.2 22.398 52.2 22.596 52.2 22.8C51.07 22.8464 51.07 22.8464 49.9171 22.8938C44.2993 23.2348 40.1669 23.4974 36.0046 27.675C33.9078 29.6331 32.2413 30 29.4 30C30.091 28.5192 30.6287 27.5713 31.8 26.4C31.8 25.806 31.8 25.212 31.8 24.6C25.4825 25.8849 20.5665 30.5266 17.0554 35.8078C16.2028 37.1682 15.4183 38.5437 14.6343 39.9469C14.359 40.4264 14.0836 40.9059 13.8 41.4C13.602 41.4 13.404 41.4 13.2 41.4C13.4678 37.9184 14.1607 35.3441 15.975 32.325C16.193 31.9592 16.411 31.5934 16.6356 31.2166C20.3038 25.2671 24.5427 23.5176 31.2 21.6C33.2254 21.1386 35.1899 21.0451 37.2632 20.9297Z" fill="#FBFBFB"/>
<path d="M39 22.8C39.594 23.196 40.188 23.592 40.8 24C39.8663 24.7796 38.9279 25.5535 37.9875 26.325C37.4655 26.7566 36.9434 27.1882 36.4055 27.6328C33.9799 29.3963 32.4107 30 29.4 30C30.0911 28.5192 30.6287 27.5713 31.8 26.4C31.8 25.608 31.8 24.816 31.8 24C34.273 22.801 36.2642 22.5974 39 22.8Z" fill="#43ADE2"/>
<rect x="46" y="17" width="2.4" height="2.4" fill="black"/>
</g>
<defs>
<clipPath id="clip0_68_110">
<rect width="60" height="60" fill="white"/>
</clipPath>
</defs>
</svg>
