<?xml version="1.0" encoding="UTF-8"?>
<svg version="1.1" xmlns="http://www.w3.org/2000/svg" width="100" height="100">
<path d="M0 0 C1.32 0 2.64 0 4 0 C5.33333333 2 6.66666667 4 8 6 C12.00018054 6.28886296 12.00018054 6.28886296 15.25 4.4375 C19.53236526 2.49431921 22.44555052 2.95471651 27 4 C29.5 5.5625 29.5 5.5625 31 7 C34.82946843 5.54744301 36.12050295 3.57104439 38 0 C39.65 0.33 41.3 0.66 43 1 C41.88786134 4.49529294 40.68426809 7.74469192 39 11 C39.95632999 12.29315061 40.91513851 13.58446853 41.875 14.875 C42.40867187 15.59429687 42.94234375 16.31359375 43.4921875 17.0546875 C44.99873162 19.08252632 44.99873162 19.08252632 47 21 C50.67033927 17.72291137 52.69281189 14.28477792 55 10 C56.65 10.33 58.3 10.66 60 11 C57.88003421 17.09934292 56.06786026 21.7323282 51 26 C50.34 26.66 49.68 27.32 49 28 C50.40751221 28.86916887 51.8264521 29.71985149 53.25 30.5625 C54.03890625 31.03816406 54.8278125 31.51382812 55.640625 32.00390625 C57.90384866 33.17020615 57.90384866 33.17020615 60.140625 32.84375 C62.38480012 31.9913541 62.38480012 31.9913541 64.5 28.9375 C65.7375 27.4834375 65.7375 27.4834375 67 26 C68.32 26 69.64 26 71 26 C70.86064364 31.57425454 68.40077115 34.36137776 64.88671875 38.36328125 C62.8834812 40.10107946 61.59102864 40.60534001 59 41 C59.48339844 42.20076172 59.48339844 42.20076172 59.9765625 43.42578125 C61.22209892 47.77565082 61.38169391 51.68651385 61.375 56.1875 C61.37701416 57.03103027 61.37902832 57.87456055 61.38110352 58.74365234 C61.28552822 64.63086405 60.23486067 69.21618082 57.82421875 74.62109375 C56.43803175 78.6219842 57.19456505 81.90570567 58 86 C58.680625 86.226875 59.36125 86.45375 60.0625 86.6875 C63.65920231 88.2945372 67.24980896 90.13092462 70 93 C70 94.32 70 95.64 70 97 C65.19163902 97.55278603 63.00573336 95.95035443 59.25 93.0625 C57.80367187 91.96615234 57.80367187 91.96615234 56.328125 90.84765625 C54 89 54 89 53 88 C52.95936168 86.33382885 52.957279 84.66611905 53 83 C52.34 83 51.68 83 51 83 C50.77570313 83.5775 50.55140625 84.155 50.3203125 84.75 C45.95501872 92.18908052 34.95907843 97.34697386 27 100 C15.22997109 101.89335457 5.51094229 96.70133682 -3.796875 89.98046875 C-5.67945579 88.39496188 -7.43781804 86.90133988 -9 85 C-9 84.34 -9 83.68 -9 83 C-9.66 83 -10.32 83 -11 83 C-10.91105469 83.74894531 -10.82210938 84.49789062 -10.73046875 85.26953125 C-11 88 -11 88 -12.86328125 89.94921875 C-13.67152344 90.52285156 -14.47976563 91.09648438 -15.3125 91.6875 C-16.11300781 92.26886719 -16.91351563 92.85023437 -17.73828125 93.44921875 C-21.53356669 96.05151291 -23.36949613 97.25029751 -28 97 C-27.68997854 93.80732289 -27.42853465 92.38660367 -25.00390625 90.19921875 C-23.79541016 89.45091797 -23.79541016 89.45091797 -22.5625 88.6875 C-21.75941406 88.17574219 -20.95632812 87.66398437 -20.12890625 87.13671875 C-18 86 -18 86 -16 86 C-14.95051648 80.6385081 -14.43648755 76.53819846 -16.9375 71.5625 C-19.29174968 66.4548372 -19.38815036 61.77893834 -19.375 56.25 C-19.3762085 55.43345947 -19.37741699 54.61691895 -19.37866211 53.77563477 C-19.29577794 49.14880361 -18.75349584 45.34866968 -17 41 C-17.74636719 40.76023438 -18.49273437 40.52046875 -19.26171875 40.2734375 C-22.40087191 38.81357454 -23.7268655 37.36040734 -25.8125 34.625 C-26.41707031 33.85414062 -27.02164062 33.08328125 -27.64453125 32.2890625 C-29 30 -29 30 -29 26 C-26.8125 26.125 -26.8125 26.125 -24 27 C-23.195625 28.03125 -22.39125 29.0625 -21.5625 30.125 C-20.2940625 31.548125 -20.2940625 31.548125 -19 33 C-14.02910797 33.21152732 -10.90348937 30.88114692 -7 28 C-7.75667969 27.46890625 -8.51335938 26.9378125 -9.29296875 26.390625 C-12.32577638 23.71230138 -13.60812692 21.39656566 -15.3125 17.75 C-15.82425781 16.67234375 -16.33601563 15.5946875 -16.86328125 14.484375 C-17.23839844 13.66453125 -17.61351562 12.8446875 -18 12 C-17.34 11.01 -16.68 10.02 -16 9 C-12.29677764 10.43883162 -11.15377412 12.03365915 -9.4375 15.5625 C-8.31385792 17.97229114 -8.31385792 17.97229114 -7 20 C-6.01 20.33 -5.02 20.66 -4 21 C-3.66226562 20.45730469 -3.32453125 19.91460938 -2.9765625 19.35546875 C-2.53054687 18.64003906 -2.08453125 17.92460937 -1.625 17.1875 C-1.18414063 16.47980469 -0.74328125 15.77210937 -0.2890625 15.04296875 C0.78188476 13.34567961 1.88676239 11.66985642 3 10 C1.9790625 8.3603125 1.9790625 8.3603125 0.9375 6.6875 C-0.22265625 4.82421875 -0.22265625 4.82421875 -1 3 C-0.67 2.01 -0.34 1.02 0 0 Z M17 10 C19.64 10 22.28 10 25 10 C21.03020432 7.35346955 20.96979568 7.35346955 17 10 Z M3 19 C1.70692312 21.14623293 1.70692312 21.14623293 1.125 23.3125 C0.568125 25.1378125 0.568125 25.1378125 0 27 C13.16009714 31.12304834 28.87465907 31.5786073 42 27 C41.62875 25.783125 41.2575 24.56625 40.875 23.3125 C40.66617188 22.62800781 40.45734375 21.94351562 40.2421875 21.23828125 C38.39641378 17.91240595 36.38436858 15.68482163 33 14 C28.983385 13.27561325 25.07144953 13.30124186 21 13.375 C19.93265625 13.35566406 18.8653125 13.33632812 17.765625 13.31640625 C11.07399406 13.35802087 7.45906626 13.85662159 3 19 Z M-6.3125 33.9375 C-12.41478912 39.98893671 -14.23933258 47.81692858 -14.3125 56.125 C-14.32531673 62.90861107 -13.81727483 68.20295841 -10 74 C-9.56429688 74.68191406 -9.12859375 75.36382812 -8.6796875 76.06640625 C-2.37380951 85.14618139 5.78447767 90.86838875 16 95 C16.99 95 17.98 95 19 95 C19.33 76.19 19.66 57.38 20 38 C20.66 38 21.32 38 22 38 C22.33 56.81 22.66 75.62 23 95 C35.03712365 92.59257527 44.52843487 85.34681583 51.5 75.3125 C56.92846275 66.93309965 56.95814157 57.65088101 56 48 C55.17167153 44.5502002 53.95997991 41.93996987 52 39 C51.5875 38.29875 51.175 37.5975 50.75 36.875 C49.30130808 34.76781175 48.10173032 33.45443144 46 32 C43.95409491 31.86642935 43.95409491 31.86642935 41.73046875 32.3125 C34.80005431 33.23024341 27.91894779 33.14566536 20.9375 33.125 C19.62716797 33.12886719 18.31683594 33.13273437 16.96679688 33.13671875 C11.51547773 33.13122624 6.17986561 33.11115174 0.7734375 32.37109375 C-3.09103319 31.61834662 -3.09103319 31.61834662 -6.3125 33.9375 Z " fill="#000000" transform="translate(29,0)"/>
<path d="M0 0 C3.125 1.875 3.125 1.875 5 5 C5.98876625 10.02622846 5.7769173 13.70513784 3.125 18.125 C-1.29486216 20.7769173 -4.97377154 20.98876625 -10 20 C-13.125 18.125 -13.125 18.125 -15 15 C-15.98876625 9.97377154 -15.7769173 6.29486216 -13.125 1.875 C-8.70513784 -0.7769173 -5.02622846 -0.98876625 0 0 Z M-10 7 C-10.33333333 10 -10.33333333 10 -10 13 C-8.11499729 15.31563087 -8.11499729 15.31563087 -5 15.25 C-1.88500271 15.31563087 -1.88500271 15.31563087 0 13 C0.33333333 10 0.33333333 10 0 7 C-1.88500271 4.68436913 -1.88500271 4.68436913 -5 4.75 C-8.11499729 4.68436913 -8.11499729 4.68436913 -10 7 Z " fill="#000000" transform="translate(75,40)"/>
<path d="M0 0 C3.125 1.875 3.125 1.875 5 5 C5.98876625 10.02622846 5.7769173 13.70513784 3.125 18.125 C-1.29486216 20.7769173 -4.97377154 20.98876625 -10 20 C-13.125 18.125 -13.125 18.125 -15 15 C-15.98876625 9.97377154 -15.7769173 6.29486216 -13.125 1.875 C-8.70513784 -0.7769173 -5.02622846 -0.98876625 0 0 Z M-10 7 C-10.33333333 10 -10.33333333 10 -10 13 C-8.11499729 15.31563087 -8.11499729 15.31563087 -5 15.25 C-1.88500271 15.31563087 -1.88500271 15.31563087 0 13 C0.33333333 10 0.33333333 10 0 7 C-1.88500271 4.68436913 -1.88500271 4.68436913 -5 4.75 C-8.11499729 4.68436913 -8.11499729 4.68436913 -10 7 Z " fill="#000000" transform="translate(35,40)"/>
<path d="M0 0 C2.375 1.5 2.375 1.5 4 4 C4.58428517 6.9631605 4.39344818 8.90159561 4 12 C1.80287161 14.70415801 0.44058039 14.94492745 -3 15.375 C-6.44058039 14.94492745 -7.80287161 14.70415801 -10 12 C-10.5659239 7.54334931 -10.82483134 5.26897129 -8.375 1.5 C-5.27859404 -0.45562482 -3.60146865 -0.60024477 0 0 Z M-4 5 C-4.33 6.32 -4.66 7.64 -5 9 C-3.68 9 -2.36 9 -1 9 C-1.33 7.68 -1.66 6.36 -2 5 C-2.66 5 -3.32 5 -4 5 Z " fill="#000000" transform="translate(68,65)"/>
<path d="M0 0 C2.375 1.5 2.375 1.5 4 4 C4.58428517 6.9631605 4.39344818 8.90159561 4 12 C1.80287161 14.70415801 0.44058039 14.94492745 -3 15.375 C-6.44058039 14.94492745 -7.80287161 14.70415801 -10 12 C-10.5659239 7.54334931 -10.82483134 5.26897129 -8.375 1.5 C-5.27859404 -0.45562482 -3.60146865 -0.60024477 0 0 Z M-4 5 C-4.33 6.32 -4.66 7.64 -5 9 C-3.68 9 -2.36 9 -1 9 C-1.33 7.68 -1.66 6.36 -2 5 C-2.66 5 -3.32 5 -4 5 Z " fill="#000000" transform="translate(38,65)"/>
</svg>
