<?xml version="1.0" encoding="UTF-8"?>
<svg version="1.1" xmlns="http://www.w3.org/2000/svg" width="100" height="100">
<path d="M0 0 C1.32 0 2.64 0 4 0 C5.33333333 2 6.66666667 4 8 6 C12.00018054 6.28886296 12.00018054 6.28886296 15.25 4.4375 C19.53236526 2.49431921 22.44555052 2.95471651 27 4 C29.5 5.5625 29.5 5.5625 31 7 C34.82946843 5.54744301 36.12050295 3.57104439 38 0 C39.65 0.33 41.3 0.66 43 1 C41.88786134 4.49529294 40.68426809 7.74469192 39 11 C39.95632999 12.29315061 40.91513851 13.58446853 41.875 14.875 C42.40867187 15.59429687 42.94234375 16.31359375 43.4921875 17.0546875 C44.99873162 19.08252632 44.99873162 19.08252632 47 21 C50.67033927 17.72291137 52.69281189 14.28477792 55 10 C56.65 10.33 58.3 10.66 60 11 C57.88003421 17.09934292 56.06786026 21.7323282 51 26 C50.34 26.66 49.68 27.32 49 28 C50.40751221 28.86916887 51.8264521 29.71985149 53.25 30.5625 C54.03890625 31.03816406 54.8278125 31.51382812 55.640625 32.00390625 C57.90384866 33.17020615 57.90384866 33.17020615 60.140625 32.84375 C62.38480012 31.9913541 62.38480012 31.9913541 64.5 28.9375 C65.7375 27.4834375 65.7375 27.4834375 67 26 C68.32 26 69.64 26 71 26 C70.86064364 31.57425454 68.40077115 34.36137776 64.88671875 38.36328125 C62.8834812 40.10107946 61.59102864 40.60534001 59 41 C59.48339844 42.20076172 59.48339844 42.20076172 59.9765625 43.42578125 C61.22209892 47.77565082 61.38169391 51.68651385 61.375 56.1875 C61.37701416 57.03103027 61.37902832 57.87456055 61.38110352 58.74365234 C61.28552822 64.63086405 60.23486067 69.21618082 57.82421875 74.62109375 C56.43803175 78.6219842 57.19456505 81.90570567 58 86 C58.680625 86.226875 59.36125 86.45375 60.0625 86.6875 C63.65920231 88.2945372 67.24980896 90.13092462 70 93 C70 94.32 70 95.64 70 97 C65.19163902 97.55278603 63.00573336 95.95035443 59.25 93.0625 C57.80367187 91.96615234 57.80367187 91.96615234 56.328125 90.84765625 C54 89 54 89 53 88 C52.95936168 86.33382885 52.957279 84.66611905 53 83 C52.34 83 51.68 83 51 83 C50.77570313 83.5775 50.55140625 84.155 50.3203125 84.75 C45.95501872 92.18908052 34.95907843 97.34697386 27 100 C15.22997109 101.89335457 5.51094229 96.70133682 -3.796875 89.98046875 C-5.67945579 88.39496188 -7.43781804 86.90133988 -9 85 C-9 84.34 -9 83.68 -9 83 C-9.66 83 -10.32 83 -11 83 C-10.91105469 83.74894531 -10.82210938 84.49789062 -10.73046875 85.26953125 C-11 88 -11 88 -12.86328125 89.94921875 C-13.67152344 90.52285156 -14.47976563 91.09648438 -15.3125 91.6875 C-16.11300781 92.26886719 -16.91351563 92.85023437 -17.73828125 93.44921875 C-21.53356669 96.05151291 -23.36949613 97.25029751 -28 97 C-27.68997854 93.80732289 -27.42853465 92.38660367 -25.00390625 90.19921875 C-23.79541016 89.45091797 -23.79541016 89.45091797 -22.5625 88.6875 C-21.75941406 88.17574219 -20.95632812 87.66398437 -20.12890625 87.13671875 C-18 86 -18 86 -16 86 C-14.95051648 80.6385081 -14.43648755 76.53819846 -16.9375 71.5625 C-19.29174968 66.4548372 -19.38815036 61.77893834 -19.375 56.25 C-19.3762085 55.43345947 -19.37741699 54.61691895 -19.37866211 53.77563477 C-19.29577794 49.14880361 -18.75349584 45.34866968 -17 41 C-17.74636719 40.76023438 -18.49273437 40.52046875 -19.26171875 40.2734375 C-22.40087191 38.81357454 -23.7268655 37.36040734 -25.8125 34.625 C-26.41707031 33.85414062 -27.02164062 33.08328125 -27.64453125 32.2890625 C-29 30 -29 30 -29 26 C-26.8125 26.125 -26.8125 26.125 -24 27 C-23.195625 28.03125 -22.39125 29.0625 -21.5625 30.125 C-20.2940625 31.548125 -20.2940625 31.548125 -19 33 C-14.02910797 33.21152732 -10.90348937 30.88114692 -7 28 C-7.75667969 27.46890625 -8.51335938 26.9378125 -9.29296875 26.390625 C-12.32577638 23.71230138 -13.60812692 21.39656566 -15.3125 17.75 C-15.82425781 16.67234375 -16.33601563 15.5946875 -16.86328125 14.484375 C-17.23839844 13.66453125 -17.61351562 12.8446875 -18 12 C-17.34 11.01 -16.68 10.02 -16 9 C-12.29677764 10.43883162 -11.15377412 12.03365915 -9.4375 15.5625 C-8.31385792 17.97229114 -8.31385792 17.97229114 -7 20 C-6.01 20.33 -5.02 20.66 -4 21 C-3.66226562 20.45730469 -3.32453125 19.91460938 -2.9765625 19.35546875 C-2.53054687 18.64003906 -2.08453125 17.92460937 -1.625 17.1875 C-1.18414063 16.47980469 -0.74328125 15.77210937 -0.2890625 15.04296875 C0.78188476 13.34567961 1.88676239 11.66985642 3 10 C1.9790625 8.3603125 1.9790625 8.3603125 0.9375 6.6875 C-0.22265625 4.82421875 -0.22265625 4.82421875 -1 3 C-0.67 2.01 -0.34 1.02 0 0 Z " fill="#B3002D" transform="translate(29,0)"/>
<path d="M0 0 C1.32 0 2.64 0 4 0 C5.33333333 2 6.66666667 4 8 6 C12.00018054 6.28886296 12.00018054 6.28886296 15.25 4.4375 C19.53236526 2.49431921 22.44555052 2.95471651 27 4 C29.5 5.5625 29.5 5.5625 31 7 C34.82946843 5.54744301 36.12050295 3.57104439 38 0 C39.65 0.33 41.3 0.66 43 1 C41.88786134 4.49529294 40.68426809 7.74469192 39 11 C39.95632999 12.29315061 40.91513851 13.58446853 41.875 14.875 C42.40867187 15.59429687 42.94234375 16.31359375 43.4921875 17.0546875 C44.99873162 19.08252632 44.99873162 19.08252632 47 21 C50.67033927 17.72291137 52.69281189 14.28477792 55 10 C56.65 10.33 58.3 10.66 60 11 C57.88003421 17.09934292 56.06786026 21.7323282 51 26 C50.34 26.66 49.68 27.32 49 28 C50.40751221 28.86916887 51.8264521 29.71985149 53.25 30.5625 C54.03890625 31.03816406 54.8278125 31.51382812 55.640625 32.00390625 C57.90384866 33.17020615 57.90384866 33.17020615 60.140625 32.84375 C62.38480012 31.9913541 62.38480012 31.9913541 64.5 28.9375 C65.7375 27.4834375 65.7375 27.4834375 67 26 C68.32 26 69.64 26 71 26 C70.86064364 31.57425454 68.40077115 34.36137776 64.88671875 38.36328125 C62.8834812 40.10107946 61.59102864 40.60534001 59 41 C59.48339844 42.20076172 59.48339844 42.20076172 59.9765625 43.42578125 C61.22209892 47.77565082 61.38169391 51.68651385 61.375 56.1875 C61.37701416 57.03103027 61.37902832 57.87456055 61.38110352 58.74365234 C61.28552822 64.63086405 60.23486067 69.21618082 57.82421875 74.62109375 C56.43803175 78.6219842 57.19456505 81.90570567 58 86 C58.680625 86.226875 59.36125 86.45375 60.0625 86.6875 C63.65920231 88.2945372 67.24980896 90.13092462 70 93 C70 94.32 70 95.64 70 97 C65.19163902 97.55278603 63.00573336 95.95035443 59.25 93.0625 C57.80367187 91.96615234 57.80367187 91.96615234 56.328125 90.84765625 C54 89 54 89 53 88 C52.95936168 86.33382885 52.957279 84.66611905 53 83 C52.34 83 51.68 83 51 83 C50.77570313 83.5775 50.55140625 84.155 50.3203125 84.75 C45.95501872 92.18908052 34.95907843 97.34697386 27 100 C15.22997109 101.89335457 5.51094229 96.70133682 -3.796875 89.98046875 C-5.67945579 88.39496188 -7.43781804 86.90133988 -9 85 C-9 84.34 -9 83.68 -9 83 C-9.66 83 -10.32 83 -11 83 C-10.91105469 83.74894531 -10.82210938 84.49789062 -10.73046875 85.26953125 C-11 88 -11 88 -12.86328125 89.94921875 C-13.67152344 90.52285156 -14.47976563 91.09648438 -15.3125 91.6875 C-16.11300781 92.26886719 -16.91351563 92.85023437 -17.73828125 93.44921875 C-21.53356669 96.05151291 -23.36949613 97.25029751 -28 97 C-27.68997854 93.80732289 -27.42853465 92.38660367 -25.00390625 90.19921875 C-23.79541016 89.45091797 -23.79541016 89.45091797 -22.5625 88.6875 C-21.75941406 88.17574219 -20.95632812 87.66398437 -20.12890625 87.13671875 C-18 86 -18 86 -16 86 C-14.95051648 80.6385081 -14.43648755 76.53819846 -16.9375 71.5625 C-19.29174968 66.4548372 -19.38815036 61.77893834 -19.375 56.25 C-19.3762085 55.43345947 -19.37741699 54.61691895 -19.37866211 53.77563477 C-19.29577794 49.14880361 -18.75349584 45.34866968 -17 41 C-17.74636719 40.76023438 -18.49273437 40.52046875 -19.26171875 40.2734375 C-22.40087191 38.81357454 -23.7268655 37.36040734 -25.8125 34.625 C-26.41707031 33.85414062 -27.02164062 33.08328125 -27.64453125 32.2890625 C-29 30 -29 30 -29 26 C-26.8125 26.125 -26.8125 26.125 -24 27 C-23.195625 28.03125 -22.39125 29.0625 -21.5625 30.125 C-20.2940625 31.548125 -20.2940625 31.548125 -19 33 C-14.02910797 33.21152732 -10.90348937 30.88114692 -7 28 C-7.75667969 27.46890625 -8.51335938 26.9378125 -9.29296875 26.390625 C-12.32577638 23.71230138 -13.60812692 21.39656566 -15.3125 17.75 C-15.82425781 16.67234375 -16.33601563 15.5946875 -16.86328125 14.484375 C-17.23839844 13.66453125 -17.61351562 12.8446875 -18 12 C-17.34 11.01 -16.68 10.02 -16 9 C-12.29677764 10.43883162 -11.15377412 12.03365915 -9.4375 15.5625 C-8.31385792 17.97229114 -8.31385792 17.97229114 -7 20 C-6.01 20.33 -5.02 20.66 -4 21 C-3.66226562 20.45730469 -3.32453125 19.91460938 -2.9765625 19.35546875 C-2.53054687 18.64003906 -2.08453125 17.92460937 -1.625 17.1875 C-1.18414063 16.47980469 -0.74328125 15.77210937 -0.2890625 15.04296875 C0.78188476 13.34567961 1.88676239 11.66985642 3 10 C1.9790625 8.3603125 1.9790625 8.3603125 0.9375 6.6875 C-0.22265625 4.82421875 -0.22265625 4.82421875 -1 3 C-0.67 2.01 -0.34 1.02 0 0 Z M-5.71875 32.30859375 C-6.3065625 33.01113281 -6.894375 33.71367188 -7.5 34.4375 C-8.13035156 35.18515625 -8.76070312 35.9328125 -9.41015625 36.703125 C-15.28972489 45.19744038 -16.25114214 55.33049868 -14.609375 65.39453125 C-11.08660758 77.92745381 -1.45704236 86.01613363 9.33984375 92.37890625 C12.84169965 94.25047542 14.97049786 95 19 95 C19 76.19 19 57.38 19 38 C20.32 38 21.64 38 23 38 C23 56.81 23 75.62 23 95 C34.04771463 93.15871423 43.08178162 87.65785021 49.7890625 78.578125 C55.5504186 69.43942222 58.25979296 60.8674448 57 50 C55.05394934 42.24573661 52.07152 35.29161567 45 31 C42.59272246 31.06526776 42.59272246 31.06526776 40.0625 31.796875 C33.657057 33.17919172 27.5342194 33.29601563 21 33.25 C19.90171875 33.25773437 18.8034375 33.26546875 17.671875 33.2734375 C12.24291964 33.26057268 7.27745375 32.94220939 1.96875 31.76953125 C-1.98210599 30.91215885 -1.98210599 30.91215885 -5.71875 32.30859375 Z " fill="#000000" transform="translate(29,0)"/>
<path d="M0 0 C1.175625 -0.02384766 2.35125 -0.04769531 3.5625 -0.07226562 C12.1506961 -0.05762665 12.1506961 -0.05762665 16.19921875 2.8984375 C21 10.00067787 21 10.00067787 21 13.5625 C8.4079722 18.40558762 -6.03930069 17.21267284 -19 14.5625 C-19.66 14.2325 -20.32 13.9025 -21 13.5625 C-20.62610764 12.13988516 -20.22470957 10.72448858 -19.8125 9.3125 C-19.59207031 8.52359375 -19.37164063 7.7346875 -19.14453125 6.921875 C-15.24149787 -1.12396856 -7.71519912 -0.07190701 0 0 Z " fill="#694A4B" transform="translate(50,13.4375)"/>
<path d="M0 0 C2.8100346 1.79363911 4.50940468 3.01880935 6 6 C6.5811138 13.08958838 6.5811138 13.08958838 4.125 16.9375 C0.8698054 20.09695358 -1.42413238 20.33421243 -5.9609375 20.29296875 C-9.13134567 19.83745033 -10.8192402 18.24684343 -13 16 C-14.60086627 12.79826746 -14.49917089 9.47422941 -14 6 C-10.32759145 0.24655994 -6.71744997 -0.96515086 0 0 Z " fill="#000000" transform="translate(74,40)"/>
<path d="M0 0 C2.8100346 1.79363911 4.50940468 3.01880935 6 6 C6.5811138 13.08958838 6.5811138 13.08958838 4.125 16.9375 C0.8698054 20.09695358 -1.42413238 20.33421243 -5.9609375 20.29296875 C-9.13134567 19.83745033 -10.8192402 18.24684343 -13 16 C-14.60086627 12.79826746 -14.49917089 9.47422941 -14 6 C-10.32759145 0.24655994 -6.71744997 -0.96515086 0 0 Z " fill="#000000" transform="translate(34,40)"/>
<path d="M0 0 C4.36689189 1.42398649 4.36689189 1.42398649 5.875 3.9375 C6.375 7.375 6.375 7.375 5.875 10.9375 C3.75 13.4375 3.75 13.4375 0.875 14.9375 C-2.30909977 14.873818 -4.27432332 14.44790601 -7 12.8125 C-8.84809221 9.73234632 -8.61560718 7.43307617 -8.125 3.9375 C-5.45043116 0.79094842 -4.15592269 -0.08311845 0 0 Z " fill="#000000" transform="translate(66.125,65.0625)"/>
<path d="M0 0 C2 1.0625 2 1.0625 3 3 C3.5 6.4375 3.5 6.4375 3 10 C0.875 12.5 0.875 12.5 -2 14 C-5.18409977 13.936318 -7.14932332 13.51040601 -9.875 11.875 C-11.67468071 8.87553214 -11.36494286 6.40613332 -11 3 C-8.82986072 -1.20464485 -4.15736573 -0.61494368 0 0 Z " fill="#000000" transform="translate(39,66)"/>
</svg>
