<svg width="36" height="36" viewBox="0 0 36 36" fill="none" xmlns="http://www.w3.org/2000/svg">
<path d="M31 14.5453V4H20.5L24.6895 8.20756L18.2065 14.7185C16.6883 13.6263 14.8676 13.0389 13 13.0388C8.0365 13.0388 4 17.0927 4 22.0776C4 27.0625 8.0365 31.1164 13 31.1164C17.9635 31.1164 22 27.0625 22 22.0776C22 20.1282 21.376 18.3265 20.3275 16.8486L26.8105 10.3377L31 14.5453ZM13 28.1034C9.691 28.1034 7 25.4008 7 22.0776C7 18.7543 9.691 16.0517 13 16.0517C16.309 16.0517 19 18.7543 19 22.0776C19 25.4008 16.309 28.1034 13 28.1034Z" fill="#4593EE"/>
</svg>
