<?xml version="1.0" encoding="UTF-8"?>
<svg version="1.1" xmlns="http://www.w3.org/2000/svg" width="100" height="100">
<path d="M0 0 C0.70672852 0.00088623 1.41345703 0.00177246 2.14160156 0.00268555 C8.8380728 0.15487807 13.12249589 1.65398065 18.125 6.1875 C20.91082479 7.84158347 22.95669157 7.04151785 26.03125 6.51953125 C29.61209023 6.27234638 32.07558675 7.64101991 35.125 9.375 C38.84519129 13.34320405 39.24213464 16.99253444 39.35546875 22.33984375 C39.08776394 24.70381335 38.28948434 26.31759091 37.125 28.375 C29.2427798 27.85900816 21.78041695 26.2828547 14.125 24.375 C14.79208984 25.83873047 14.79208984 25.83873047 15.47265625 27.33203125 C16.04477851 28.61696157 16.61636533 29.9021304 17.1875 31.1875 C17.48205078 31.83009766 17.77660156 32.47269531 18.08007812 33.13476562 C20.23828125 38.03515625 20.23828125 38.03515625 19.125 41.375 C16.2335914 42.4944613 13.44737388 42.48268197 10.375 42.4375 C9.57578125 42.42847656 8.7765625 42.41945312 7.953125 42.41015625 C7.34984375 42.39855469 6.7465625 42.38695312 6.125 42.375 C18.27121806 58.67997751 34.36415304 63.01160693 53.125 68.375 C52.35717119 72.84778921 51.34568503 75.0717333 48.125 78.375 C46.17004908 79.73182425 44.18143281 80.96715434 42.125 82.1640625 C40.08264115 83.32714835 40.08264115 83.32714835 38.31762695 84.91748047 C34.24426787 87.6251916 29.81714809 87.08185709 25.125 86.375 C21.30390809 84.93475784 17.91912441 82.99470252 14.4375 80.875 C13.53322266 80.35035156 12.62894531 79.82570313 11.69726562 79.28515625 C9.49318951 78.00236063 7.30418647 76.69948424 5.125 75.375 C3.62756881 76.87243119 3.79297307 78.36324239 3.5625 80.4375 C3.418125 81.736875 3.27375 83.03625 3.125 84.375 C4.115 84.375 5.105 84.375 6.125 84.375 C6.125 85.695 6.125 87.015 6.125 88.375 C4.06327387 88.71308686 2.0005797 89.04527361 -0.0625 89.375 C-1.78533203 89.6534375 -1.78533203 89.6534375 -3.54296875 89.9375 C-6.37915393 90.30989477 -9.02219564 90.46096021 -11.875 90.375 C-11.545 88.725 -11.215 87.075 -10.875 85.375 C-6.42 84.88 -6.42 84.88 -1.875 84.375 C-2.37 79.92 -2.37 79.92 -2.875 75.375 C-5.515 74.715 -8.155 74.055 -10.875 73.375 C-10.875 75.025 -10.875 76.675 -10.875 78.375 C-9.885 78.375 -8.895 78.375 -7.875 78.375 C-7.875 79.695 -7.875 81.015 -7.875 82.375 C-9.93672613 82.71308686 -11.9994203 83.04527361 -14.0625 83.375 C-15.21105469 83.560625 -16.35960938 83.74625 -17.54296875 83.9375 C-20.37915393 84.30989477 -23.02219564 84.46096021 -25.875 84.375 C-25.545 82.725 -25.215 81.075 -24.875 79.375 C-20.42 78.88 -20.42 78.88 -15.875 78.375 C-15.875 75.735 -15.875 73.095 -15.875 70.375 C-16.555625 70.16875 -17.23625 69.9625 -17.9375 69.75 C-26.61013633 65.6904681 -31.44826871 58.27561376 -35.015625 49.6015625 C-37.6729119 39.62465803 -36.98467286 28.16523227 -32.4140625 18.921875 C-25.25962234 7.08254763 -13.99294721 -0.03145599 0 0 Z M-24.40625 16.359375 C-30.96099992 25.35472329 -32.37527064 34.55161893 -30.875 45.375 C-27.91175252 54.57776153 -22.50271115 62.07804195 -13.9375 66.6875 C-8.49344756 69.14576399 -2.90429764 70.7518311 3.125 70.375 C1.11833715 68.81426222 -0.85192283 67.38825183 -3.05859375 66.12109375 C-9.39320885 62.44328429 -12.88853097 58.49954759 -14.875 51.375 C-15.92637533 43.02032102 -15.43946153 36.50697115 -10.875 29.375 C-7.52561827 29.94772978 -6.01279587 30.9318386 -3.75 33.4375 C-2.30565299 35.07332205 -2.30565299 35.07332205 -0.875 36.375 C-0.215 36.375 0.445 36.375 1.125 36.375 C3.47664844 31.99134466 5.81976232 27.60336487 8.15039062 23.20849609 C8.94394615 21.71560982 9.74439805 20.22639097 10.546875 18.73828125 C12.37273579 15.26517649 13.125 13.39082553 13.125 9.375 C11.21816578 6.923356 10.14515057 6.38171686 7.125 5.375 C-5.16363501 4.08232068 -15.98516346 6.86501272 -24.40625 16.359375 Z M18.125 14.375 C16.40472887 16.90618146 16.40472887 16.90618146 15.125 19.375 C17.16459477 19.88338564 19.20679138 20.38133886 21.25 20.875 C22.38695312 21.1534375 23.52390625 21.431875 24.6953125 21.71875 C27.93966698 22.33953765 30.83314457 22.49506768 34.125 22.375 C33.88175684 18.1587853 33.75362242 16.02016511 30.75 12.9375 C25.98955766 10.10390337 22.77680651 11.96602877 18.125 14.375 Z M9.125 30.375 C8.465 32.355 7.805 34.335 7.125 36.375 C10.095 36.87 10.095 36.87 13.125 37.375 C12.465 35.065 11.805 32.755 11.125 30.375 C10.465 30.375 9.805 30.375 9.125 30.375 Z M-8.875 35.375 C-11.51711361 39.98284614 -11.49302865 44.18043012 -10.875 49.375 C-9.05304609 55.57182528 -5.18381254 59.81526259 0.125 63.375 C3.33273612 64.44424537 5.75484818 64.54184956 9.125 64.5625 C10.176875 64.57667969 11.22875 64.59085938 12.3125 64.60546875 C15.33258688 64.58680926 15.33258688 64.58680926 18.125 62.375 C17.21004761 61.46790283 17.21004761 61.46790283 16.27661133 60.54248047 C13.99150636 58.27452736 11.70874441 56.00424782 9.42749023 53.73242188 C8.44403271 52.75395979 7.45967541 51.77640113 6.47436523 50.79980469 C1.45195128 45.82066546 -3.41346435 40.8618575 -7.875 35.375 C-8.205 35.375 -8.535 35.375 -8.875 35.375 Z M19.125 69.375 C23.64944717 73.89944717 32.38956937 75.56546088 38.6875 75.875 C42.68088742 75.29414365 43.49851245 74.27160771 46.125 71.375 C43.18997405 70.36763372 40.25160539 69.37039496 37.3125 68.375 C36.47912109 68.08882813 35.64574219 67.80265625 34.78710938 67.5078125 C33.98466797 67.23710938 33.18222656 66.96640625 32.35546875 66.6875 C31.61707764 66.43613281 30.87868652 66.18476562 30.11791992 65.92578125 C25.23266106 64.57564723 23.04195436 66.58961023 19.125 69.375 Z M18.125 75.375 C21.68360412 79.30819403 25.75787893 81.95127992 31.125 82.375 C32.115 81.715 33.105 81.055 34.125 80.375 C28.82701036 78.29364693 23.66936129 76.66208387 18.125 75.375 Z " fill="#000000" transform="translate(41.875,5.625)"/>
<path d="M0 0 C3.85924714 0.60413448 6.21611116 2.42176011 9.25 4.8125 C10.58804688 5.84310547 10.58804688 5.84310547 11.953125 6.89453125 C14 9 14 9 14 13 C10.46633206 13.45842179 9.2493575 13.18346888 6.32421875 11.03125 C5.01904297 9.77828125 5.01904297 9.77828125 3.6875 8.5 C2.80449219 7.6646875 1.92148438 6.829375 1.01171875 5.96875 C0.34785156 5.3190625 -0.31601563 4.669375 -1 4 C-0.67 2.68 -0.34 1.36 0 0 Z " fill="#000000" transform="translate(76,45)"/>
<path d="M0 0 C1.8125 0.125 1.8125 0.125 4 1 C5.875 3.8125 5.875 3.8125 7 7 C6.1875 9.375 6.1875 9.375 5 11 C2.17750049 9.96508351 1.16625774 9.30084735 -0.3125 6.625 C-1.02770914 3.89420147 -0.9659657 2.60810739 0 0 Z " fill="#000000" transform="translate(68,51)"/>
<path d="M0 0 C1.45947705 0.06006078 2.91779272 0.1488689 4.375 0.25 C5.59316406 0.31960937 5.59316406 0.31960937 6.8359375 0.390625 C9 1 9 1 10.2890625 3.046875 C10.64097656 4.01367188 10.64097656 4.01367188 11 5 C10.67 5.33 10.34 5.66 10 6 C8.47480724 5.91062197 6.95318071 5.75462854 5.4375 5.5625 C4.19806641 5.40974609 4.19806641 5.40974609 2.93359375 5.25390625 C2.29550781 5.17011719 1.65742187 5.08632813 1 5 C0.67 3.35 0.34 1.7 0 0 Z " fill="#000000" transform="translate(81,37)"/>
<path d="M0 0 C1.98 0 3.96 0 6 0 C6 1.98 6 3.96 6 6 C4.02 6 2.04 6 0 6 C0 4.02 0 2.04 0 0 Z " fill="#000000" transform="translate(42,24)"/>
</svg>
