<?xml version="1.0" encoding="UTF-8"?>
<svg version="1.1" xmlns="http://www.w3.org/2000/svg" width="100" height="100">
<path d="M0 0 C0.70672852 0.00088623 1.41345703 0.00177246 2.14160156 0.00268555 C8.8380728 0.15487807 13.12249589 1.65398065 18.125 6.1875 C20.91082479 7.84158347 22.95669157 7.04151785 26.03125 6.51953125 C29.61209023 6.27234638 32.07558675 7.64101991 35.125 9.375 C38.84519129 13.34320405 39.24213464 16.99253444 39.35546875 22.33984375 C39.08776394 24.70381335 38.28948434 26.31759091 37.125 28.375 C29.2427798 27.85900816 21.78041695 26.2828547 14.125 24.375 C14.79208984 25.83873047 14.79208984 25.83873047 15.47265625 27.33203125 C16.04477851 28.61696157 16.61636533 29.9021304 17.1875 31.1875 C17.48205078 31.83009766 17.77660156 32.47269531 18.08007812 33.13476562 C20.23828125 38.03515625 20.23828125 38.03515625 19.125 41.375 C16.2335914 42.4944613 13.44737388 42.48268197 10.375 42.4375 C9.57578125 42.42847656 8.7765625 42.41945312 7.953125 42.41015625 C7.34984375 42.39855469 6.7465625 42.38695312 6.125 42.375 C18.27121806 58.67997751 34.36415304 63.01160693 53.125 68.375 C52.35717119 72.84778921 51.34568503 75.0717333 48.125 78.375 C46.17004908 79.73182425 44.18143281 80.96715434 42.125 82.1640625 C40.08264115 83.32714835 40.08264115 83.32714835 38.31762695 84.91748047 C34.24426787 87.6251916 29.81714809 87.08185709 25.125 86.375 C21.30390809 84.93475784 17.91912441 82.99470252 14.4375 80.875 C13.53322266 80.35035156 12.62894531 79.82570313 11.69726562 79.28515625 C9.49318951 78.00236063 7.30418647 76.69948424 5.125 75.375 C3.62756881 76.87243119 3.79297307 78.36324239 3.5625 80.4375 C3.418125 81.736875 3.27375 83.03625 3.125 84.375 C4.115 84.375 5.105 84.375 6.125 84.375 C6.125 85.695 6.125 87.015 6.125 88.375 C4.06327387 88.71308686 2.0005797 89.04527361 -0.0625 89.375 C-1.78533203 89.6534375 -1.78533203 89.6534375 -3.54296875 89.9375 C-6.37915393 90.30989477 -9.02219564 90.46096021 -11.875 90.375 C-11.545 88.725 -11.215 87.075 -10.875 85.375 C-6.42 84.88 -6.42 84.88 -1.875 84.375 C-2.37 79.92 -2.37 79.92 -2.875 75.375 C-5.515 74.715 -8.155 74.055 -10.875 73.375 C-10.875 75.025 -10.875 76.675 -10.875 78.375 C-9.885 78.375 -8.895 78.375 -7.875 78.375 C-7.875 79.695 -7.875 81.015 -7.875 82.375 C-9.93672613 82.71308686 -11.9994203 83.04527361 -14.0625 83.375 C-15.21105469 83.560625 -16.35960938 83.74625 -17.54296875 83.9375 C-20.37915393 84.30989477 -23.02219564 84.46096021 -25.875 84.375 C-25.545 82.725 -25.215 81.075 -24.875 79.375 C-20.42 78.88 -20.42 78.88 -15.875 78.375 C-15.875 75.735 -15.875 73.095 -15.875 70.375 C-16.555625 70.16875 -17.23625 69.9625 -17.9375 69.75 C-26.61013633 65.6904681 -31.44826871 58.27561376 -35.015625 49.6015625 C-37.6729119 39.62465803 -36.98467286 28.16523227 -32.4140625 18.921875 C-25.25962234 7.08254763 -13.99294721 -0.03145599 0 0 Z " fill="#000000" transform="translate(41.875,5.625)"/>
<path d="M0 0 C1.875 1.6875 1.875 1.6875 3 3 C-1.66666667 12.33333333 -6.33333333 21.66666667 -11 31 C-17.75 25.25 -17.75 25.25 -20 23 C-20.99 23 -21.98 23 -23 23 C-26.72604172 30.03623056 -28.52349084 35.79992158 -26.234375 43.61328125 C-22.63905099 53.24361342 -18.18151529 56.80651946 -9 61 C-7.6639695 61.66124483 -6.32961948 62.32595679 -5 63 C-16.55384576 63.65194114 -24.31087243 62.37635631 -33.3125 54.875 C-40.41476921 48.11891058 -44.06568186 40.19331162 -44.3125 30.4375 C-44.18007469 20.54171771 -41.07364122 13.07198502 -34.2109375 5.94140625 C-25.17319002 -1.99456636 -10.85997285 -7.15168944 0 0 Z " fill="#FF0000" transform="translate(54,13)"/>
<path d="M0 0 C3.22653081 0.08326531 4.43940051 0.26010508 7.25 2 C9.1565798 5.29318329 8.54083148 6.69463537 7.625 10.375 C6.41442944 13.24410867 5.00623004 15.99220135 3.5625 18.75 C3.18544922 19.48605469 2.80839844 20.22210938 2.41992188 20.98046875 C1.49555636 22.78239646 0.56127386 24.57923099 -0.375 26.375 C-10.86386024 17.73781588 -10.86386024 17.73781588 -11.7890625 13.4609375 C-12.08462123 9.30755953 -11.73278844 7.80811232 -9 4.5 C-8.13375 3.79875 -7.2675 3.0975 -6.375 2.375 C-3.98213116 -0.01786884 -3.28052906 0.05449384 0 0 Z " fill="#FFFFFF" transform="translate(43.375,17.625)"/>
<path d="M0 0 C3.99253663 1.60399626 6.67450208 4.40177268 9.640625 7.41015625 C10.16767029 7.93765976 10.69471558 8.46516327 11.23773193 9.00865173 C12.34608725 10.12001922 13.45202011 11.23380726 14.55566406 12.34985352 C16.25270857 14.06523784 17.95770328 15.77240171 19.6640625 17.47851562 C20.74005803 18.55942351 21.81559527 19.64078783 22.890625 20.72265625 C23.40304749 21.23619156 23.91546997 21.74972687 24.44342041 22.27882385 C28 25.88393011 28 25.88393011 28 27 C14.98164398 26.37007955 7.00088228 20.00088228 -2 11 C-1.9140625 9.00390625 -1.9140625 9.00390625 -1.625 6.5625 C-1.53476562 5.75941406 -1.44453125 4.95632812 -1.3515625 4.12890625 C-1 2 -1 2 0 0 Z " fill="#FFEE00" transform="translate(32,41)"/>
<path d="M0 0 C1.44826172 0.53463867 1.44826172 0.53463867 2.92578125 1.08007812 C5.29732106 1.96060033 7.65206144 2.87122366 10 3.8125 C6.25 7.6875 6.25 7.6875 4 8.8125 C-3.63131154 8.4371896 -10.88857668 6.61685592 -18 3.8125 C-18.33 3.1525 -18.66 2.4925 -19 1.8125 C-12.26628832 -4.1434101 -7.97983659 -3.20844464 0 0 Z " fill="#FF0000" transform="translate(79,73.1875)"/>
<path d="M0 0 C2.5 2.0625 2.5 2.0625 4 5 C4.25 8.8125 4.25 8.8125 4 12 C-2.49850211 11.48446121 -8.66226532 10.53332291 -15 9 C-14.79570164 5.3226295 -14.22067989 4.19915015 -11.4375 1.6875 C-6.99844865 -0.49167066 -4.89260425 -0.71021675 0 0 Z " fill="#FFFFFF" transform="translate(72,17)"/>
<path d="M0 0 C0.928125 0.845625 1.85625 1.69125 2.8125 2.5625 C11.59431488 9.98920517 19.59198065 14.09564065 31 16 C28.17101083 18.82898917 25.6609207 19.16826363 21.8125 19.25 C16.25742241 19.15080219 11.61346576 18.18183002 7.2734375 14.55859375 C3.23210174 10.26840726 1.45975569 5.64694963 0 0 Z " fill="#0800FF" transform="translate(30,52)"/>
<path d="M0 0 C1.706823 2.2188699 3.22133385 4.38307782 4.625 6.8125 C7.81148783 11.08910209 11.71500598 13.88432653 16 17 C16.65484375 17.52851562 17.3096875 18.05703125 17.984375 18.6015625 C20.19543709 20.13559395 22.18511541 20.89540329 24.75 21.6875 C25.54921875 21.93886719 26.3484375 22.19023438 27.171875 22.44921875 C27.77515625 22.63097656 28.3784375 22.81273438 29 23 C29 23.33 29 23.66 29 24 C15.98164398 23.37007955 8.00088228 17.00088228 -1 8 C-0.82364548 5.30917128 -0.38164079 2.67148554 0 0 Z " fill="#FF0000" transform="translate(31,44)"/>
<path d="M0 0 C3.85924714 0.60413448 6.21611116 2.42176011 9.25 4.8125 C10.58804688 5.84310547 10.58804688 5.84310547 11.953125 6.89453125 C14 9 14 9 14 13 C10.46633206 13.45842179 9.2493575 13.18346888 6.32421875 11.03125 C5.01904297 9.77828125 5.01904297 9.77828125 3.6875 8.5 C2.80449219 7.6646875 1.92148438 6.829375 1.01171875 5.96875 C0.34785156 5.3190625 -0.31601563 4.669375 -1 4 C-0.67 2.68 -0.34 1.36 0 0 Z " fill="#000000" transform="translate(76,45)"/>
<path d="M0 0 C7.15023379 1.43004676 14.2506672 3.19508247 21 6 C21.33 6.66 21.66 7.32 22 8 C19.11552885 9.44223558 17.2189007 9.30153637 14 9 C11.38925713 7.90640614 9.02954016 6.48589538 6.625 5 C5.98433594 4.6184375 5.34367187 4.236875 4.68359375 3.84375 C3.11537245 2.90749848 1.55667355 1.95532843 0 1 C0 0.67 0 0.34 0 0 Z " fill="#FF0000" transform="translate(55,79)"/>
<path d="M0 0 C1.8125 0.125 1.8125 0.125 4 1 C5.875 3.8125 5.875 3.8125 7 7 C6.1875 9.375 6.1875 9.375 5 11 C2.17750049 9.96508351 1.16625774 9.30084735 -0.3125 6.625 C-1.02770914 3.89420147 -0.9659657 2.60810739 0 0 Z " fill="#000000" transform="translate(68,51)"/>
<path d="M0 0 C1.45947705 0.06006078 2.91779272 0.1488689 4.375 0.25 C5.59316406 0.31960937 5.59316406 0.31960937 6.8359375 0.390625 C9 1 9 1 10.2890625 3.046875 C10.64097656 4.01367188 10.64097656 4.01367188 11 5 C10.67 5.33 10.34 5.66 10 6 C8.47480724 5.91062197 6.95318071 5.75462854 5.4375 5.5625 C4.19806641 5.40974609 4.19806641 5.40974609 2.93359375 5.25390625 C2.29550781 5.17011719 1.65742187 5.08632813 1 5 C0.67 3.35 0.34 1.7 0 0 Z " fill="#000000" transform="translate(81,37)"/>
<path d="M0 0 C1.99097846 2.98646769 2.94124926 5.59687262 4 9 C1.36 9 -1.28 9 -4 9 C-2.94124926 5.59687262 -1.99097846 2.98646769 0 0 Z " fill="#FFFFFF" transform="translate(52,34)"/>
<path d="M0 0 C1.65 0.33 3.3 0.66 5 1 C4.67 2.65 4.34 4.3 4 6 C2.35 5.67 0.7 5.34 -1 5 C-0.67 3.35 -0.34 1.7 0 0 Z " fill="#000000" transform="translate(43,24)"/>
</svg>
