<?xml version="1.0" encoding="UTF-8"?>
<svg version="1.1" xmlns="http://www.w3.org/2000/svg" width="100" height="100">
<path d="M0 0 C2.09222196 2.10268307 3.56767619 4.41257634 5 7 C5.721875 6.505 6.44375 6.01 7.1875 5.5 C13.3119587 2.40860656 21.53807635 3.509154 28.125 4.5625 C31.06123728 5.23256009 31.06123728 5.23256009 34 4 C47.28041018 3.07799555 47.28041018 3.07799555 53 7 C53.41958984 6.24203125 53.41958984 6.24203125 53.84765625 5.46875 C55.10415846 3.43248918 56.31914723 1.70619226 58 0 C61.49939165 -0.76350363 63.56469771 -0.83889814 66.7109375 1 C70.55007452 3.99639962 72.70158511 6.73412881 73.3359375 11.55078125 C73.45815542 20.19158834 71.13903346 24.18231378 66 31 C66.54269531 32.03898437 67.08539063 33.07796875 67.64453125 34.1484375 C79.60272609 57.31604821 79.60272609 57.31604821 77 70 C74.85032783 72.8348016 72.27540087 73.76868288 69 75 C67.91589844 75.46019531 66.83179687 75.92039062 65.71484375 76.39453125 C56.9047865 80 56.9047865 80 52 80 C51.74863281 80.59554687 51.49726562 81.19109375 51.23828125 81.8046875 C49.83826116 84.28674204 48.47811103 85.4519342 46.1875 87.125 C45.52105469 87.62257813 44.85460937 88.12015625 44.16796875 88.6328125 C37.22876644 93.00888603 29.92179803 92.66291197 22 92 C15.77982061 90.43606918 10.26284209 86.79741071 6 82 C6 81.34 6 80.68 6 80 C5.44054687 79.93683594 4.88109375 79.87367187 4.3046875 79.80859375 C-3.08212584 78.68038271 -13.52451523 75.47548477 -19 70 C-20.65941241 55.34975903 -14.83620321 42.6152616 -8 30 C-8.63228516 29.29423828 -8.63228516 29.29423828 -9.27734375 28.57421875 C-9.82519531 27.95160156 -10.37304688 27.32898438 -10.9375 26.6875 C-11.75541016 25.76517578 -11.75541016 25.76517578 -12.58984375 24.82421875 C-16.06988774 20.32233358 -15.56459144 14.40615641 -15 9 C-11.63514708 2.27029416 -7.77521383 -1.3640726 0 0 Z M-7.625 6.9375 C-10.42107488 10.54296498 -10.67816538 12.34150309 -10.43359375 16.7734375 C-9.74235572 20.32303818 -8.36993831 22.28154135 -6 25 C-5.34 25 -4.68 25 -4 25 C-3.65066406 24.15695313 -3.30132812 23.31390625 -2.94140625 22.4453125 C-2.25884766 20.80175781 -2.25884766 20.80175781 -1.5625 19.125 C-0.88380859 17.48917969 -0.88380859 17.48917969 -0.19140625 15.8203125 C0.49543463 14.19441376 1.21065887 12.57868226 2 11 C1.34 11 0.68 11 0 11 C-1 9 -2 7 -3 5 C-5.2755746 4.80204923 -5.2755746 4.80204923 -7.625 6.9375 Z M61 5 C58.60179695 7.63684747 58.60179695 7.63684747 58 11 C57.01 11.495 57.01 11.495 56 12 C56.34933594 12.68707031 56.69867188 13.37414063 57.05859375 14.08203125 C57.51363281 14.98308594 57.96867187 15.88414063 58.4375 16.8125 C58.88996094 17.70582031 59.34242187 18.59914063 59.80859375 19.51953125 C61 22 61 22 62 25 C62.66 25 63.32 25 64 25 C67.61023986 20.85884252 68.69716517 17.62637131 68.46484375 12.125 C67.70720362 8.66150227 65.77206732 7.04604969 63 5 C62.34 5 61.68 5 61 5 Z M6.49609375 12.95703125 C2.92365047 17.83532847 0.79864699 23.45431271 -1 29.1875 C-2.1989822 32.55963743 -4.00466756 35.16711111 -6.07421875 38.0703125 C-7.16127618 39.95135146 -7.16127618 39.95135146 -6.921875 42.046875 C-5.66091178 44.71840725 -4.06566201 45.59506738 -1.5625 47.125 C0.91170166 48.65797246 2.93721412 49.93721412 5 52 C4.67 52.66 4.34 53.32 4 54 C-1.7607103 52.70677932 -5.33195882 50.62011357 -10 47 C-10.99 49.475 -10.99 49.475 -12 52 C-3.43265546 59.11836418 -3.43265546 59.11836418 7 62 C6.67 63.32 6.34 64.64 6 66 C-0.95365789 64.21440518 -6.87314903 61.7441867 -13 58 C-14.20561184 58.98267859 -14.20561184 58.98267859 -14.09765625 60.84765625 C-14.08605469 61.57855469 -14.07445312 62.30945313 -14.0625 63.0625 C-14.041875 64.361875 -14.02125 65.66125 -14 67 C-7.43032485 70.48192783 -1.33126033 73.59014224 6 75 C14.66272562 61.39441682 14.66272562 61.39441682 18 46 C17.38511719 45.90203125 16.77023438 45.8040625 16.13671875 45.703125 C9.55475296 44.48540884 9.55475296 44.48540884 7 42.25 C5.79258312 39.53331202 5.44810238 36.92866911 5 34 C6.69769531 34.86625 6.69769531 34.86625 8.4296875 35.75 C9.91135207 36.50020991 11.39312873 37.25019847 12.875 38 C13.62136719 38.3815625 14.36773437 38.763125 15.13671875 39.15625 C15.85214844 39.5171875 16.56757812 39.878125 17.3046875 40.25 C18.2944458 40.75273438 18.2944458 40.75273438 19.30419922 41.265625 C20.9978855 42.13246413 20.9978855 42.13246413 23 42 C22.34 46.62 21.68 51.24 21 56 C23.92654527 56.97551509 25.94654996 57.16478088 29 57.1875 C29.86625 57.20167969 30.7325 57.21585938 31.625 57.23046875 C34.26721537 57.16255938 34.26721537 57.16255938 37 55 C36.01 48.565 36.01 48.565 35 42 C36.98 41.34 38.96 40.68 41 40 C43.14215073 38.9940752 45.2677163 37.95205611 47.375 36.875 C48.43460938 36.33617188 49.49421875 35.79734375 50.5859375 35.2421875 C51.38257812 34.83226563 52.17921875 34.42234375 53 34 C51.55058824 41.36784314 51.55058824 41.36784314 49.3125 43.9375 C46.25069019 45.34427748 43.33628149 45.6792037 40 46 C40.54349311 51.55812289 42.01212175 55.9939517 44.3125 61.0625 C44.60833984 61.74376953 44.90417969 62.42503906 45.20898438 63.12695312 C47.1106787 67.40268487 49.29931227 71.17849706 52 75 C59.36989466 73.305613 65.57735897 71.01216835 72 67 C72 64.36 72 61.72 72 59 C71.34 58.67 70.68 58.34 70 58 C67.78841364 59.16572896 67.78841364 59.16572896 65.375 60.8125 C60.8979112 63.61718789 57.17269832 65.0420929 52 66 C51.505 64.02 51.505 64.02 51 62 C51.53367187 61.86464844 52.06734375 61.72929688 52.6171875 61.58984375 C59.36964471 59.63887428 64.44131398 56.23574196 70 52 C69.01 49.525 69.01 49.525 68 47 C67.40832031 47.42152344 66.81664063 47.84304687 66.20703125 48.27734375 C65.02173828 49.09912109 65.02173828 49.09912109 63.8125 49.9375 C63.03519531 50.48277344 62.25789063 51.02804688 61.45703125 51.58984375 C58.92049701 53.0456289 56.8781818 53.59613435 54 54 C53.67 53.01 53.34 52.02 53 51 C53.69867188 50.59007812 54.39734375 50.18015625 55.1171875 49.7578125 C56.02726562 49.21898437 56.93734375 48.68015625 57.875 48.125 C58.77992187 47.59132812 59.68484375 47.05765625 60.6171875 46.5078125 C63.06603282 45.08024648 63.06603282 45.08024648 65 43 C64.87702158 38.69575547 62.78712747 36.33986754 60.2578125 33.015625 C58.8321261 30.73098468 58.19324933 28.6601929 57.5 26.0625 C55.82597831 19.88366714 52.99543634 15.34757216 48.875 10.5 C44.38563377 8.15772197 39.95917102 8.33328366 35 9 C33.30792999 9.9563874 31.63183107 10.94410931 30 12 C27.3125 11.25 27.3125 11.25 25 10 C18.80848394 6.90424197 11.27574399 8.13153304 6.49609375 12.95703125 Z M18 62 C16.82592979 64.26727333 15.66060261 66.53834624 14.5 68.8125 C14.16613281 69.45509766 13.83226562 70.09769531 13.48828125 70.75976562 C11.99760916 73.69547699 11 75.66126517 11 79 C16.77176259 78.60194741 20.49138743 77.95878176 25 74 C26.58627005 71.73553023 26.58627005 71.73553023 26 69 C23.92155543 66.36766915 21.5989745 64.11700505 19 62 C18.67 62 18.34 62 18 62 Z M35.375 65.1875 C32.57076474 67.95486028 32.57076474 67.95486028 31.6875 71.6875 C33.59680447 75.05151263 35.55863855 76.24803417 39 78 C41.70225245 78.58217288 44.22852238 78.80886361 47 79 C47 75.02698665 45.28783907 72.25357249 43.5 68.8125 C42.99919922 67.83120117 42.99919922 67.83120117 42.48828125 66.83007812 C41.66423076 65.2172936 40.83281845 63.60827441 40 62 C38.05843168 62 36.71101218 63.93931332 35.375 65.1875 Z M25.75 78.875 C22.87561016 81.09611942 20.47281453 82.03084246 17 83 C19.68668001 85.9425543 21.65507361 86.899082 25.70703125 87.203125 C31.65059065 87.2928391 35.98603407 87.34264395 41 84 C38.65704057 82.43802705 36.30985802 80.89153541 33.9375 79.375 C33.24527344 78.92898437 32.55304687 78.48296875 31.83984375 78.0234375 C28.90467724 76.39071218 28.36371889 76.69690092 25.75 78.875 Z " fill="#000000" transform="translate(21,4)"/>
<path d="M0 0 C3.8125 0.25 3.8125 0.25 6.875 1.875 C9.78925503 3.60722034 9.78925503 3.60722034 13.0625 2.5 C14.6574466 1.77502427 16.24547876 1.03351062 17.8125 0.25 C20.1454866 0.20977609 22.47956666 0.20679753 24.8125 0.25 C24.8125 2.5625 24.8125 2.5625 23.8125 5.25 C21.85856395 6.29268336 19.93928973 6.93696176 17.8203125 7.57421875 C15.53675015 8.2458362 15.53675015 8.2458362 12.8125 10.25 C8.34131755 9.95840114 5.53654346 8.63720735 1.8125 6.25 C0.905 5.92 -0.0025 5.59 -0.9375 5.25 C-2.05125 4.755 -2.05125 4.755 -3.1875 4.25 C-3.5175 3.26 -3.8475 2.27 -4.1875 1.25 C-3.1875 0.25 -3.1875 0.25 0 0 Z " fill="#000000" transform="translate(39.1875,17.75)"/>
<path d="M0 0 C0.33 0.99 0.66 1.98 1 3 C-1.91924683 5.91924683 -5.40503951 6.61461558 -9.2734375 7.90234375 C-12.02390957 8.86539445 -12.02390957 8.86539445 -14.1015625 10.62890625 C-16 12 -16 12 -20 12 C-19.92221339 9.27746874 -19.57215386 7.5563485 -17.5859375 5.625 C-12.01909568 1.50504658 -7.00245643 -0.33345031 0 0 Z " fill="#000000" transform="translate(72,26)"/>
<path d="M0 0 C7.18414472 0.33259929 13.03754893 1.82645322 18.7265625 6.3828125 C20 8 20 8 20 12 C16.25677011 11.40509382 13.34757689 10.32520845 10 8.5625 C7.4321288 7.21837992 4.96484577 5.98676723 2.25 4.96484375 C0 4 0 4 -1 2 C-0.67 1.34 -0.34 0.68 0 0 Z " fill="#000000" transform="translate(28,26)"/>
</svg>
