<?xml version="1.0" encoding="UTF-8"?>
<svg version="1.1" xmlns="http://www.w3.org/2000/svg" width="64" height="64">
<path d="M0 0 C1.69576172 0.50080078 1.69576172 0.50080078 3.42578125 1.01171875 C6.6875 2.3125 6.6875 2.3125 8.98828125 4.421875 C13.03267027 7.2547032 16.74032779 6.93501239 21.5625 6.875 C22.87154297 6.91077148 22.87154297 6.91077148 24.20703125 6.94726562 C30.69343593 6.93263464 33.72856442 5.4470601 38.6875 1.3125 C43.14194064 -0.63631778 46.84753167 -0.88109873 51.6875 -0.6875 C52.21893619 6.39831591 52.27564776 11.76081099 48.26953125 17.7890625 C46.27685396 19.70793693 44.28541391 20.43051914 41.6875 21.3125 C41.79191406 23.13974609 41.79191406 23.13974609 41.8984375 25.00390625 C42.41660309 37.90984453 42.41660309 37.90984453 40.45703125 41.6796875 C38.875 43.25 38.875 43.25 37.2109375 44.6640625 C34.55887586 47.53372919 34.18436972 51.21569356 33.42578125 54.95703125 C32.6875 57.3125 32.6875 57.3125 29.6875 59.3125 C26.99229596 59.56040112 24.44463303 59.68267523 21.75 59.6875 C21.03392578 59.71199219 20.31785156 59.73648438 19.58007812 59.76171875 C16.12678653 59.78092148 14.07694923 59.59138788 11.23828125 57.55859375 C9.60741357 55.1965058 9.14274013 53.81704841 8.8125 51 C8.16688883 47.2817579 7.41048074 45.81042279 4.5625 43.375 C1.25722363 40.03763356 1.31856461 36.872219 1.27001953 32.40209961 C1.33228418 28.69806882 1.47614157 25.01127257 1.6875 21.3125 C0.92050781 21.05210938 0.15351563 20.79171875 -0.63671875 20.5234375 C-4.21112985 18.9058208 -5.4202829 17.13111459 -7.375 13.8203125 C-9.13428976 9.11421238 -8.68305513 4.25323506 -8.3125 -0.6875 C-5.24352818 -2.22198591 -3.21971957 -0.98086587 0 0 Z M-4.3125 4.3125 C-3.32934135 10.24732007 -3.32934135 10.24732007 0.3125 14.8125 C1.09625 15.3075 1.88 15.8025 2.6875 16.3125 C5.14329697 12.62685916 5.14329697 12.62685916 5.6875 8.3125 C4.39836513 7.64095067 3.10609796 6.97541141 1.8125 6.3125 C1.09320312 5.94125 0.37390625 5.57 -0.3671875 5.1875 C-2.26098977 4.17576254 -2.26098977 4.17576254 -4.3125 4.3125 Z M41.5625 6.3125 C40.83804688 6.68375 40.11359375 7.055 39.3671875 7.4375 C38.53574219 7.870625 38.53574219 7.870625 37.6875 8.3125 C37.6875 12.22088866 39.19317876 13.42844107 41.6875 16.3125 C45.39819698 12.31636479 47.28541618 9.94167348 47.6875 4.3125 C45.16274538 4.3125 43.79847066 5.15845063 41.5625 6.3125 Z M21.6875 11.3125 C21.3575 12.6325 21.0275 13.9525 20.6875 15.3125 C22.0075 14.6525 23.3275 13.9925 24.6875 13.3125 C24.6875 12.6525 24.6875 11.9925 24.6875 11.3125 C23.6975 11.3125 22.7075 11.3125 21.6875 11.3125 Z M9 14.5625 C5.43999984 18.7960137 5.51311286 22.29957317 5.4375 27.75 C5.41171875 28.86246094 5.3859375 29.97492187 5.359375 31.12109375 C5.72144227 34.64262902 6.53909529 36.52270262 8.6875 39.3125 C9.3475 39.3125 10.0075 39.3125 10.6875 39.3125 C11.0175 37.9925 11.3475 36.6725 11.6875 35.3125 C13.0075 35.3125 14.3275 35.3125 15.6875 35.3125 C13.8125 42.0625 13.8125 42.0625 12.6875 44.3125 C23.29964383 45.48287112 23.29964383 45.48287112 33.25390625 42.859375 C34.85799012 41.01951013 35.94514761 39.6392018 36.6875 37.3125 C36.3575 36.3225 36.0275 35.3325 35.6875 34.3125 C33.7075 34.6425 31.7275 34.9725 29.6875 35.3125 C29.8125 33.5 29.8125 33.5 30.6875 31.3125 C31.6775 30.879375 32.6675 30.44625 33.6875 30 C37.00592927 28.57838496 37.00592927 28.57838496 37.75 25.0625 C37.67688246 20.67544786 36.91011565 18.09094661 34.6875 14.3125 C32.14381001 12.80797543 32.14381001 12.80797543 29.6875 12.3125 C29.275 13.26125 28.8625 14.21 28.4375 15.1875 C26.58120666 18.50230953 26.09862126 19.063357 22.6875 20.3125 C20.109375 20.5078125 20.109375 20.5078125 17.4375 20.4375 C16.54546875 20.41945313 15.6534375 20.40140625 14.734375 20.3828125 C13.72117187 20.34800781 13.72117187 20.34800781 12.6875 20.3125 C12.996875 19.549375 13.30625 18.78625 13.625 18 C14.36643593 16.12460323 15.04978217 14.22565348 15.6875 12.3125 C11.61450199 11.88454223 11.61450199 11.88454223 9 14.5625 Z M13.6875 49.3125 C14.80604586 53.03864153 14.80604586 53.03864153 17.6875 55.3125 C23.36416509 55.9263702 23.36416509 55.9263702 28.1875 53.4375 C29.87972773 51.47369096 29.87972773 51.47369096 29.6875 49.3125 C26.73923237 48.32974412 24.76097496 48.17835275 21.6875 48.1875 C20.82125 48.18492188 19.955 48.18234375 19.0625 48.1796875 C16.53738305 48.21655795 16.53738305 48.21655795 13.6875 49.3125 Z " fill="#000000" transform="translate(10.3125,2.6875)"/>
<path d="M0 0 C1.32 0 2.64 0 4 0 C4 1.65 4 3.3 4 5 C2.68 5 1.36 5 0 5 C0 3.35 0 1.7 0 0 Z " fill="#000000" transform="translate(38,26)"/>
<path d="M0 0 C1.32 0 2.64 0 4 0 C4 1.65 4 3.3 4 5 C2.68 5 1.36 5 0 5 C0 3.35 0 1.7 0 0 Z " fill="#000000" transform="translate(22,26)"/>
</svg>
