<?xml version="1.0" encoding="UTF-8"?>
<svg version="1.1" xmlns="http://www.w3.org/2000/svg" width="64" height="64">
<path d="M0 0 C1.69576172 0.50080078 1.69576172 0.50080078 3.42578125 1.01171875 C6.6875 2.3125 6.6875 2.3125 8.98828125 4.421875 C13.03267027 7.2547032 16.74032779 6.93501239 21.5625 6.875 C22.87154297 6.91077148 22.87154297 6.91077148 24.20703125 6.94726562 C30.69343593 6.93263464 33.72856442 5.4470601 38.6875 1.3125 C43.14194064 -0.63631778 46.84753167 -0.88109873 51.6875 -0.6875 C52.21893619 6.39831591 52.27564776 11.76081099 48.26953125 17.7890625 C46.27685396 19.70793693 44.28541391 20.43051914 41.6875 21.3125 C41.79191406 23.13974609 41.79191406 23.13974609 41.8984375 25.00390625 C42.41660309 37.90984453 42.41660309 37.90984453 40.45703125 41.6796875 C38.875 43.25 38.875 43.25 37.2109375 44.6640625 C34.55887586 47.53372919 34.18436972 51.21569356 33.42578125 54.95703125 C32.6875 57.3125 32.6875 57.3125 29.6875 59.3125 C26.99229596 59.56040112 24.44463303 59.68267523 21.75 59.6875 C21.03392578 59.71199219 20.31785156 59.73648438 19.58007812 59.76171875 C16.12678653 59.78092148 14.07694923 59.59138788 11.23828125 57.55859375 C9.60741357 55.1965058 9.14274013 53.81704841 8.8125 51 C8.16688883 47.2817579 7.41048074 45.81042279 4.5625 43.375 C1.25722363 40.03763356 1.31856461 36.872219 1.27001953 32.40209961 C1.33228418 28.69806882 1.47614157 25.01127257 1.6875 21.3125 C0.92050781 21.05210938 0.15351563 20.79171875 -0.63671875 20.5234375 C-4.21112985 18.9058208 -5.4202829 17.13111459 -7.375 13.8203125 C-9.13428976 9.11421238 -8.68305513 4.25323506 -8.3125 -0.6875 C-5.24352818 -2.22198591 -3.21971957 -0.98086587 0 0 Z " fill="#000000" transform="translate(10.3125,2.6875)"/>
<path d="M0 0 C-0.309375 0.7425 -0.61875 1.485 -0.9375 2.25 C-1.8094925 4.50692176 -2.47667007 6.6450153 -3 9 C4.03513907 9.42108336 4.03513907 9.42108336 10 6 C11.82629794 2.93319201 11.82629794 2.93319201 13 0 C13.99 0 14.98 0 16 0 C16 0.66 16 1.32 16 2 C16.99 2.33 17.98 2.66 19 3 C20.88370033 5.8569455 21.27290842 8.17778154 21.25 11.5625 C21.25773437 12.70912109 21.25773437 12.70912109 21.265625 13.87890625 C21 16 21 16 19 19 C16.375 20.1875 16.375 20.1875 14 21 C14 21.66 14 22.32 14 23 C17.465 22.505 17.465 22.505 21 22 C20.74531091 26.20237002 19.21959332 29.47938999 16.49609375 32.6171875 C10.58496335 35.89189824 2.53587327 34.43161427 -4 34 C-4 31 -4 31 -2 29 C-2 27.68 -2 26.36 -2 25 C-4.24362573 24.7715451 -4.24362573 24.7715451 -6.125 27 C-7.053125 27.99 -7.053125 27.99 -8 29 C-10.62811156 26.43446253 -11.2340542 24.39911826 -11.3984375 20.84765625 C-11.40637966 19.25260481 -11.39805886 17.65740453 -11.375 16.0625 C-11.38660156 15.26392578 -11.39820313 14.46535156 -11.41015625 13.64257812 C-11.38685167 8.95447257 -11.05771982 5.78267218 -8 2 C-4.77208445 -0.1519437 -3.71599191 -0.20086443 0 0 Z " fill="#FFFFFD" transform="translate(27,14)"/>
<path d="M0 0 C0.86625 -0.00257812 1.7325 -0.00515625 2.625 -0.0078125 C5 0.125 5 0.125 8 1.125 C8.125 3.5 8.125 3.5 8 6.125 C6 8.125 6 8.125 3.25 8.390625 C2.1775 8.38546875 1.105 8.3803125 0 8.375 C-1.60875 8.38273437 -1.60875 8.38273437 -3.25 8.390625 C-6 8.125 -6 8.125 -8 6.125 C-8.125 3.5 -8.125 3.5 -8 1.125 C-5.05173237 0.14224412 -3.07347496 -0.00914725 0 0 Z " fill="#EAC2D0" transform="translate(32,49.875)"/>
<path d="M0 0 C-0.33709806 6.51722911 -1.44225737 9.32539218 -6 14 C-8.12038635 11.38485683 -10.13091744 8.80362384 -12 6 C-10.92250558 5.17977251 -9.83770492 4.36913831 -8.75 3.5625 C-8.14671875 3.11003906 -7.5434375 2.65757813 -6.921875 2.19140625 C-4.73239903 0.83410915 -2.60965632 0 0 0 Z " fill="#FFFFFD" transform="translate(58,6)"/>
<path d="M0 0 C8.57142857 2.85714286 8.57142857 2.85714286 12 7 C10.07423885 9.43929746 8.19909405 11.80090595 6 14 C-0.14673913 6.75 -0.14673913 6.75 0 0 Z " fill="#FFFFFD" transform="translate(6,6)"/>
<path d="M0 0 C-0.875 4.75 -0.875 4.75 -2 7 C-2.66 7 -3.32 7 -4 7 C-5.625 4.5 -5.625 4.5 -7 2 C-4 0 -4 0 0 0 Z " fill="#F5D0DD" transform="translate(55,10)"/>
<path d="M0 0 C2.475 0.495 2.475 0.495 5 1 C5.33 1.99 5.66 2.98 6 4 C5.01 4.99 4.02 5.98 3 7 C1.5 5.75 1.5 5.75 0 4 C0 2.68 0 1.36 0 0 Z " fill="#F5D0DD" transform="translate(9,10)"/>
<path d="M0 0 C1.32 0 2.64 0 4 0 C4 1.65 4 3.3 4 5 C2.68 5 1.36 5 0 5 C0 3.35 0 1.7 0 0 Z " fill="#000000" transform="translate(38,26)"/>
<path d="M0 0 C1.32 0 2.64 0 4 0 C4 1.65 4 3.3 4 5 C2.68 5 1.36 5 0 5 C0 3.35 0 1.7 0 0 Z " fill="#000000" transform="translate(22,26)"/>
</svg>
